<?xml version="1.0" standalone="no"?>
<!DOCTYPE svg PUBLIC "-//W3C//DTD SVG 20010904//EN"
 "http://www.w3.org/TR/2001/REC-SVG-20010904/DTD/svg10.dtd">
<svg version="1.0" xmlns="http://www.w3.org/2000/svg"
 width="500.000000pt" height="500.000000pt" viewBox="0 0 500.000000 500.000000"
 preserveAspectRatio="xMidYMid meet">

<g transform="translate(0.000000,500.000000) scale(0.100000,-0.100000)"
fill="#000000" stroke="none">
<path d="M2006 3908 c-32 -46 -6 -98 49 -98 38 0 78 40 68 68 -19 54 -88 72
-117 30z"/>
<path d="M2906 3908 c-32 -45 -6 -98 48 -98 39 0 66 26 66 62 0 55 -83 81
-114 36z"/>
<path d="M806 3850 c-60 -10 -106 -32 -106 -51 0 -6 32 -45 71 -87 114 -122
153 -219 169 -415 20 -240 66 -355 194 -483 71 -71 96 -89 196 -137 90 -44
141 -61 236 -81 98 -21 275 -44 354 -47 8 0 -13 -10 -47 -23 -131 -49 -250
-137 -347 -257 -123 -152 -185 -315 -186 -489 0 -85 17 -189 36 -218 24 -36
10 -37 -39 -3 -149 102 -226 302 -198 510 10 74 49 177 83 218 11 14 4 43 -10
43 -14 0 -56 -69 -79 -132 -116 -308 37 -662 318 -734 174 -45 391 44 569 233
74 79 236 302 254 348 2 6 6 8 9 5 3 -3 -7 -55 -23 -116 -83 -330 -195 -549
-366 -719 -87 -87 -138 -124 -234 -169 -179 -85 -383 -86 -550 -1 -50 25 -80
27 -80 5 0 -18 139 -79 215 -95 278 -59 570 70 775 342 131 173 212 362 295
682 23 91 53 200 66 241 l23 75 13 -90 c27 -186 73 -353 93 -340 27 16 90 300
90 400 0 21 2 36 5 33 3 -2 19 -70 35 -149 85 -404 189 -588 386 -685 71 -36
85 -39 180 -42 84 -4 116 0 171 17 69 21 162 75 221 130 l33 31 67 -72 c75
-79 164 -142 216 -152 68 -13 108 26 92 89 -16 62 -137 150 -259 187 -37 11
-67 23 -65 27 2 3 16 30 31 59 35 66 64 177 73 277 6 64 9 75 23 69 64 -25 72
-26 117 -9 108 41 113 180 9 229 -41 20 -80 17 -120 -10 -45 -29 -58 -69 -66
-204 -8 -126 -31 -254 -54 -299 -12 -23 -13 -20 -20 40 -18 160 -68 281 -165
409 -69 90 -102 124 -174 179 -58 45 -197 120 -224 122 -33 2 33 17 80 18 54
1 256 35 342 56 138 35 292 123 380 215 110 117 151 231 177 490 19 198 61
294 180 416 58 60 59 77 4 100 -49 20 -224 29 -318 15 -333 -47 -792 -363
-1091 -751 -77 -99 -190 -291 -231 -392 -32 -77 -33 -79 -40 -49 -4 17 -18 45
-32 61 -47 56 -115 29 -144 -58 l-12 -36 -21 60 c-42 115 -181 349 -279 469
-59 72 -260 270 -345 340 -175 144 -436 292 -592 335 -87 24 -273 34 -364 20z
m145 -59 c70 -27 152 -92 194 -153 19 -29 33 -54 31 -56 -9 -9 -184 85 -233
125 -29 24 -73 53 -98 65 -25 12 -45 26 -45 30 0 15 100 8 151 -11z m3269 11
c0 -4 -24 -20 -54 -34 -30 -15 -70 -40 -89 -57 -31 -28 -201 -121 -220 -121
-16 0 23 57 72 107 69 70 157 113 233 113 32 0 58 -4 58 -8z m-295 -53 c-56
-51 -97 -109 -116 -162 -7 -22 -23 -43 -34 -49 -201 -103 -443 -276 -604 -432
-71 -69 -309 -334 -363 -406 -15 -19 -65 -75 -112 -125 -75 -78 -85 -86 -80
-60 14 65 77 205 141 310 85 141 97 157 220 296 268 305 608 551 898 648 49
16 91 28 93 26 2 -2 -18 -23 -43 -46z m-2783 20 c62 -21 158 -66 273 -129 148
-79 392 -273 549 -434 196 -202 366 -464 420 -647 9 -29 15 -54 13 -55 -5 -6
-152 148 -208 217 -163 201 -394 441 -504 525 -169 129 -212 159 -327 224 -71
40 -128 79 -128 87 0 31 -45 98 -109 164 -38 38 -62 69 -55 69 8 0 42 -10 76
-21z m-271 -60 c122 -78 227 -243 273 -427 47 -188 113 -313 230 -435 69 -73
216 -168 318 -207 46 -18 85 -34 88 -37 11 -11 -121 11 -226 37 -248 62 -417
180 -505 352 -31 60 -58 176 -69 298 -18 190 -48 283 -120 382 -27 37 -47 68
-43 68 3 0 28 -14 54 -31z m3333 19 c-4 -7 -22 -31 -40 -53 -66 -83 -88 -155
-109 -350 -19 -179 -35 -246 -80 -334 -85 -169 -242 -280 -485 -344 -94 -25
-239 -51 -246 -44 -2 2 33 18 78 36 165 64 309 171 408 303 92 121 172 300
128 286 -7 -3 -22 -24 -34 -47 -11 -24 -28 -49 -38 -57 -10 -7 -16 -20 -13
-28 7 -18 -50 -104 -127 -192 -130 -146 -375 -270 -622 -313 -181 -32 -184
-33 -184 -23 0 4 19 19 43 32 23 13 74 45 112 70 121 81 481 276 638 346 97
43 123 63 99 78 -5 3 -38 -9 -73 -25 -35 -17 -81 -37 -102 -45 -20 -7 -106
-50 -190 -95 -83 -45 -181 -98 -217 -117 -36 -19 -144 -86 -240 -151 -96 -64
-179 -118 -185 -120 -5 -2 15 23 45 55 66 71 219 247 276 318 52 64 244 251
305 297 25 19 79 59 120 91 42 31 109 76 150 101 106 65 342 197 346 194 1 -2
-9 -25 -22 -51 -14 -27 -22 -52 -19 -57 12 -20 31 -5 63 51 39 67 94 126 161
170 48 32 66 38 54 18z m-2949 -246 c168 -95 232 -137 355 -231 110 -83 292
-256 371 -351 35 -41 66 -77 69 -80 4 -3 35 -39 70 -80 35 -41 88 -101 118
-132 31 -32 54 -59 51 -61 -2 -3 -83 48 -180 112 -97 64 -205 132 -240 150
-35 18 -98 52 -139 76 -104 58 -192 103 -355 179 -160 75 -144 56 -200 247
-20 68 -54 157 -76 197 -21 41 -39 76 -39 78 0 6 13 -1 195 -104z m111 -457
c164 -76 471 -243 639 -348 88 -55 165 -104 170 -109 12 -12 -52 -4 -190 23
-123 24 -145 31 -265 81 -100 42 -242 129 -299 182 -51 47 -173 216 -157 216
2 0 48 -20 102 -45z m1744 -528 c59 -17 144 -65 222 -125 47 -35 63 -60 33
-48 -41 15 -142 37 -260 56 -72 11 -157 25 -190 31 -73 13 -195 50 -195 60 0
14 86 41 150 48 78 7 166 0 240 -22z m-857 -2 c26 -9 47 -20 47 -24 0 -14
-175 -61 -305 -81 -155 -24 -272 -51 -345 -79 l-53 -20 34 36 c63 66 207 150
309 179 62 18 250 12 313 -11z m137 -79 c0 -7 -12 -22 -27 -32 -95 -61 -176
-162 -297 -369 -139 -235 -149 -249 -275 -375 -88 -87 -168 -132 -245 -137
-66 -5 -105 19 -137 84 -22 44 -24 60 -24 193 0 140 2 148 32 224 81 202 173
267 452 321 208 41 193 41 141 -2 -25 -20 -83 -75 -130 -123 -66 -67 -96 -107
-132 -178 -43 -84 -53 -129 -25 -119 6 2 27 35 46 73 102 199 298 371 496 434
73 23 125 26 125 6z m356 -6 c118 -40 219 -105 327 -209 72 -69 135 -153 160
-213 18 -42 36 -56 48 -37 5 9 -7 42 -34 94 -46 86 -170 222 -260 284 -27 18
-47 34 -45 36 8 7 359 -65 410 -85 165 -62 274 -247 286 -482 2 -60 1 -108 -3
-108 -4 0 -30 18 -57 40 -91 73 -111 40 -22 -36 l56 -48 -28 -23 c-169 -136
-418 2 -610 337 -135 234 -225 353 -314 415 -22 15 -40 34 -40 41 0 20 57 18
126 -6z m-397 -132 c-24 -62 -127 -243 -209 -366 -102 -155 -246 -299 -352
-353 -32 -16 -24 -5 50 68 94 95 153 179 281 398 55 94 106 167 157 223 41 45
79 82 85 82 5 0 -1 -24 -12 -52z m390 -35 c35 -39 97 -128 143 -208 145 -249
222 -346 347 -434 49 -34 48 -38 -4 -17 -93 39 -241 171 -341 302 -79 104
-198 318 -237 427 -12 31 26 3 92 -70z m1181 22 c82 -42 56 -155 -35 -155 -79
0 -112 84 -56 141 33 33 50 35 91 14z m-1140 -293 c66 -105 107 -158 200 -255
128 -135 224 -183 389 -194 l96 -6 -52 -24 c-64 -29 -165 -42 -246 -31 -143
19 -291 134 -359 278 -40 86 -81 205 -102 300 -17 76 -17 77 74 -68z m1014
-380 c74 -28 176 -112 176 -144 0 -30 -26 -41 -66 -28 -58 19 -234 172 -234
204 0 11 36 1 124 -32z"/>
<path d="M1087 3174 c-8 -8 1 -24 14 -24 5 0 9 7 9 15 0 15 -12 20 -23 9z"/>
<path d="M3920 3165 c0 -8 7 -15 15 -15 8 0 15 7 15 15 0 8 -7 15 -15 15 -8 0
-15 -7 -15 -15z"/>
<path d="M3379 1942 c-58 -30 -60 -101 -5 -138 74 -48 159 64 94 123 -34 30
-52 33 -89 15z"/>
<path d="M2146 3831 c-4 -6 28 -58 69 -116 129 -178 202 -369 238 -621 15
-108 37 -127 37 -32 -1 141 -85 424 -168 561 -47 79 -145 209 -162 215 -4 2
-11 -1 -14 -7z"/>
<path d="M2820 3808 c-39 -42 -141 -190 -168 -244 -56 -111 -115 -334 -128
-486 -5 -68 -4 -78 10 -78 9 0 16 1 16 3 0 1 5 41 11 87 16 136 56 294 96 388
38 87 152 271 192 306 11 11 21 25 21 32 0 27 -21 24 -50 -8z"/>
<path d="M2455 2915 c-64 -63 12 -153 94 -110 38 19 48 53 27 93 -25 49 -81
57 -121 17z"/>
</g>
</svg>
